<?xml version="1.0" encoding="UTF-8"?><svg id="Calque_1" xmlns="http://www.w3.org/2000/svg" xmlns:xlink="http://www.w3.org/1999/xlink" viewBox="0 0 516.88 155.03"><defs><linearGradient id="Dégradé_sans_nom_155" x1="329.3" y1="200.26" x2="187.57" y2="-45.23" gradientUnits="userSpaceOnUse"><stop offset="0" stop-color="#fff" stop-opacity=".9"/><stop offset="1" stop-color="#fff" stop-opacity=".45"/></linearGradient><linearGradient id="Dégradé_sans_nom_146" x1="258.44" y1="125.7" x2="258.44" y2="29.33" gradientUnits="userSpaceOnUse"><stop offset="0" stop-color="#2b2b31"/><stop offset="1" stop-color="#fff" stop-opacity=".8"/></linearGradient></defs><g><path d="m91.27,125.7h-27.2c-7.92,0-15.17-4.46-18.74-11.53l-13.74-27.19c-3.01-5.96-3.01-12.99,0-18.94l13.74-27.19c3.57-7.07,10.82-11.53,18.74-11.53h388.74c7.92,0,15.17,4.46,18.74,11.53l13.74,27.19c3.01,5.96,3.01,12.99,0,18.94l-13.74,27.19c-3.57,7.07-10.82,11.53-18.74,11.53H91.27Z" style="fill:url(#Dégradé_sans_nom_155);"/><path d="m452.81,30.86c7.39,0,14.04,4.1,17.38,10.69l13.74,27.19c2.78,5.5,2.78,12.06,0,17.56l-13.74,27.19c-3.33,6.59-9.99,10.69-17.38,10.69H64.07c-7.39,0-14.04-4.1-17.38-10.69l-13.74-27.19c-2.78-5.5-2.78-12.06,0-17.56l13.74-27.19c3.33-6.59,9.99-10.69,17.38-10.69h388.74m0-1.53H64.07c-7.92,0-15.17,4.46-18.74,11.53l-13.74,27.19c-3.01,5.96-3.01,12.99,0,18.94l13.74,27.19c3.57,7.07,10.82,11.53,18.74,11.53h388.74c7.92,0,15.17-4.46,18.74-11.53l13.74-27.19c3.01-5.96,3.01-12.99,0-18.94l-13.74-27.19c-3.57-7.07-10.82-11.53-18.74-11.53h0Z" style="fill:url(#Dégradé_sans_nom_146);"/></g><g><path d="m182.51,77.06c2.4-1.07,4.3-2.76,5.7-5.05,1.4-2.3,2.11-4.82,2.11-7.58,0-2.3-.5-4.73-1.49-6.85-1-2.12-2.43-3.85-4.29-5.21-1.86-1.35-4.07-2.03-6.62-2.03h-23.29c-.42,0-.76.34-.76.76v52.84c0,.42.34.76.76.76h24.43c2.5,0,4.77-.65,6.82-1.95,2.04-1.3,3.68-3.02,4.9-5.17,1.22-2.14,1.84-4.47,1.84-6.97,0-3.11-.91-5.73-2.72-8.31-1.81-2.58-4.28-4.33-7.39-5.25h0Zm-27.11-24.44c0-.42.34-.77.76-.77h21.76c2.14,0,4.03.57,5.67,1.72,1.63,1.15,2.91,2.66,3.83,4.52.92,1.86,1.38,4.12,1.38,6.32,0,1.99-.49,3.93-1.46,5.82-.97,1.89-2.3,3.45-3.98,4.67-1.68,1.23-3.65,1.84-5.9,1.84h-22.06v-24.12Zm34.08,43.99c-1.07,1.91-2.52,3.48-4.33,4.71-1.81,1.23-3.84,1.84-6.09,1.84h-22.9c-.42,0-.76-.34-.76-.76v-24.13h24.2c2.19,0,4.16.6,5.9,1.8,1.74,1.2,3.1,2.74,4.1,4.63s1.49,3.7,1.49,5.9-.54,4.1-1.61,6.01Z" style="fill:#2b2b31;"/><path d="m283.28,74.64c1.17-2.42,1.76-5.04,1.76-7.85,0-2.04-.38-4.03-1.15-5.97-.77-1.94-1.83-3.7-3.18-5.28-1.35-1.58-2.96-2.85-4.82-3.79-1.86-.94-3.92-1.42-6.16-1.42h-21.37c-.42,0-.76.34-.76.76v52.84c0,.42.34.76.76.76h0c.42,0,.76-.34.76-.76v-20.61h19.8c.26,0,.5.13.64.35l13.33,20.67c.14.22.38.35.64.35h1.42l-13.78-21.37c2.76-.2,5.17-1.1,7.24-2.68,2.07-1.58,3.69-3.59,4.86-6.01h0Zm-13.02,7.16h-21.14v-29.18c0-.42.34-.76.76-.76h19.83c2.55,0,4.87.7,6.97,2.11,2.09,1.4,3.75,3.24,4.98,5.51s1.84,4.71,1.84,7.31-.54,4.9-1.61,7.2c-1.07,2.3-2.59,4.17-4.56,5.63-1.97,1.46-4.33,2.18-7.08,2.18h0Z" style="fill:#2b2b31;"/><path d="m323.69,50.33h0c-.42,0-.76.34-.76.76v52.84c0,.42.34.76.76.76h34.15c.42,0,.76-.34.76-.76h0c0-.42-.34-.77-.76-.77h-32.62c-.42,0-.76-.34-.76-.76v-51.31c0-.42-.34-.76-.76-.76Z" style="fill:#2b2b31;"/><rect x="367.27" y="50.33" width="1.53" height="54.37" rx=".76" ry=".76" style="fill:#2b2b31;"/><path d="m382.72,104.7h0c.42,0,.76-.34.76-.76v-25.65h27.81c.42,0,.76-.34.76-.76h0c0-.42-.34-.77-.76-.77h-27.81v-24.13c0-.42.34-.76.76-.76h31.94c.42,0,.76-.34.76-.76h0c0-.42-.34-.77-.76-.77h-33.47c-.42,0-.76.34-.76.76v52.84c0,.42.34.76.76.76Z" style="fill:#2b2b31;"/><path d="m122.7,81.88l-20.79-31.21c-.14-.21-.38-.34-.64-.34h-1.35l21.89,33.12c.08.13.13.27.13.42v20.06c0,.42.34.76.76.76h0c.42,0,.76-.34.76-.76v-20.06c0-.15.04-.3.13-.42l21.89-33.12h-1.35c-.26,0-.49.13-.64.34l-20.8,31.21Z" style="fill:#2b2b31;"/><rect x="427.14" y="76.75" width="29.33" height="1.53" rx=".76" ry=".76" style="fill:#2b2b31;"/><rect x="208.35" y="76.75" width="29.33" height="1.53" rx=".76" ry=".76" style="fill:#2b2b31;"/><path d="m198.45,77.87l13.34,26.42c.13.26.39.42.68.42h25.96c.42,0,.76-.34.76-.76h0c0-.42-.34-.77-.76-.77h-25.02c-.29,0-.55-.16-.68-.42l-12.57-24.89c-.11-.22-.11-.47,0-.69l12.57-24.89c.13-.26.39-.42.68-.42h25.02c.42,0,.76-.34.76-.76h0c0-.42-.34-.77-.76-.77h-25.96c-.29,0-.55.16-.68.42l-13.34,26.42c-.11.22-.11.47,0,.69Z" style="fill:#2b2b31;"/><path d="m50.5,77.87l13.35,26.42c.13.26.39.42.68.42h25.96c.42,0,.76-.34.76-.76h0c0-.42-.34-.77-.76-.77h-25.02c-.29,0-.55-.16-.68-.42l-12.57-24.89c-.11-.22-.11-.47,0-.69l12.57-24.89c.13-.26.39-.42.68-.42h25.02c.42,0,.76-.34.76-.76h0c0-.42-.34-.77-.76-.77h-25.96c-.29,0-.55.16-.68.42l-13.35,26.42c-.11.22-.11.47,0,.69Z" style="fill:#2b2b31;"/><path d="m452.34,50.33h-25.96c-.42,0-.76.34-.76.76h0c0,.42.34.77.76.77h25.02c.29,0,.55.16.68.42l12.57,24.89c.11.22.11.47,0,.69l-12.57,24.89c-.13.26-.39.42-.68.42h-25.02c-.42,0-.76.34-.76.76h0c0,.42.34.77.76.77h25.96c.29,0,.55-.16.68-.42l13.35-26.42c.11-.22.11-.47,0-.69l-13.35-26.42c-.13-.26-.39-.42-.68-.42Z" style="fill:#2b2b31;"/></g></svg>
